<svg width="512" height="512" viewBox="0 0 135.47 135.47" xml:space="preserve" xmlns="http://www.w3.org/2000/svg">
  <rect width="135.47" height="135.47" rx="32" ry="32" fill="#f5e6fe" paint-order="markers fill stroke"/>
  <path d="M91.17 23.77a2.3 2.3 0 0 0-1.99 1.15L74.75 49.91H49.57l-6.39-11.07a2 2 0 0 0-3.46 0L22.89 68a2 2 0 0 0 1.73 3h2.1l5.09 35.74c.62 4.38 1.85 4.97 6.29 4.97h18.87V90.62c0-.18.02-.36.04-.53a10.76 10.76 0 0 1 10.72-10.23A10.76 10.76 0 0 1 78.5 90.62v21.08h16.94c4.43 0 5.19-.32 5.87-4.7l6.64-45.08h2.6a2.3 2.3 0 0 0 2-3.45L93.17 24.92a2.3 2.3 0 0 0-2-1.15Zm.26 30.83a6.6 6.6 0 0 1 6.6 6.6l-1.65 13.19a3 3 0 0 1-2.89 2.47h-6.18a2.47 2.47 0 0 1-2.47-2.47v-13.2c0-.1 0-.21.02-.32a6.6 6.6 0 0 1 6.57-6.27zm-50.08 9.14a6.06 6.06 0 0 1 5.94 6.21v12.42c0 1.29-1 2.32-2.23 2.32H39.5a2.74 2.74 0 0 1-2.6-2.32l-1.48-12.42c0-3.43 2.66-6.2 5.94-6.2z" fill="#be63f9" paint-order="markers fill stroke"/>
  <path d="M37.1 12.19a7.5 7.5 0 0 0-2.46.4c-5.95 2.08-6.81 7.11-6.81 7.11a.58.58 0 0 0 .04.32s1.22 2.85-.07 5.55a18.6 18.6 0 0 0-.73-.13 2.28 2.28 0 0 0-.66-1.72l-1.96-1.97a.43.43 0 0 0-.73.38l.18 1.1a2.28 2.28 0 0 0-1.22 1.22l-1.1-.19a.43.43 0 0 0-.37.73l1.96 1.97c.48.47 1.1.69 1.73.66l.12.72c-2.7 1.3-5.54.07-5.54.07a.58.58 0 0 0-.32-.04s-5.03.87-7.12 6.82c-1.12 3.2.45 7.12.45 7.12a.58.58 0 0 0 1.05.08s1.73-2.97 4.77-3.6c1.01-.2 2.18.16 3.1.6.92.45 1.55.95 1.55.95a.58.58 0 0 0 .9-.23s1.29-2.9 3.6-4.26c2.08-1.2 4.41-.87 7.06-.04h.02a.58.58 0 0 0 .1.01.58.58 0 0 0 .15.02.58.58 0 0 0 .08-.03.58.58 0 0 0 .16-.06.58.58 0 0 0 .06-.06.58.58 0 0 0 .12-.12.58.58 0 0 0 .03-.08.58.58 0 0 0 .05-.16.58.58 0 0 0 0-.1.58.58 0 0 0-.02-.14c-.84-2.66-1.18-5 .03-7.08 1.36-2.32 4.27-3.61 4.27-3.61a.58.58 0 0 0 .22-.9s-.5-.62-.94-1.54a5.2 5.2 0 0 1-.6-3.1c.63-3.04 3.6-4.78 3.6-4.78a.58.58 0 0 0-.09-1.04s-2.2-.88-4.66-.85z" fill="#be63f9"/>
  <path d="M67.73 33.8c0-.51-.07-1.04-.25-1.53-1.3-3.71-4.43-4.25-4.43-4.25a.36.36 0 0 0-.2.02s-1.78.77-3.46-.04l.08-.45c.39.02.78-.12 1.08-.41l1.22-1.23a.27.27 0 0 0-.23-.45l-.69.11a1.42 1.42 0 0 0-.76-.76l.12-.68a.27.27 0 0 0-.46-.24l-1.22 1.23c-.3.3-.43.69-.41 1.07l-.45.08c-.81-1.68-.05-3.46-.05-3.46a.36.36 0 0 0 .03-.2s-.55-3.13-4.25-4.43c-2-.7-4.44.28-4.44.28a.36.36 0 0 0-.05.65s1.85 1.08 2.24 2.98c.13.63-.1 1.36-.37 1.93-.28.57-.6.97-.6.97a.36.36 0 0 0 .15.55s1.81.8 2.66 2.26c.75 1.29.54 2.74.02 4.4a.36.36 0 0 0 0 .06.36.36 0 0 0-.02.1.36.36 0 0 0 .02.05.36.36 0 0 0 .04.1.36.36 0 0 0 .03.03.36.36 0 0 0 .08.08.36.36 0 0 0 .05.02.36.36 0 0 0 .1.03.36.36 0 0 0 .06 0 .36.36 0 0 0 .09-.01c1.66-.52 3.11-.74 4.4.02a6.45 6.45 0 0 1 2.26 2.66.36.36 0 0 0 .56.14s.39-.32.96-.6c.57-.27 1.3-.5 1.93-.36 1.9.38 2.98 2.23 2.98 2.23a.36.36 0 0 0 .65-.05s.55-1.37.53-2.9z" fill="#d9a4fc"/>
</svg>
