<svg xmlns="http://www.w3.org/2000/svg" xml:space="preserve" width="512" height="512" viewBox="0 0 135.47 135.47">
  <rect width="102.89" height="102.89" x="44.34" y="-51.45" fill="#f5d061" paint-order="markers fill stroke" rx="12.15" ry="12.15" style="-inkscape-stroke:none" transform="rotate(45)"/>
  <rect width="93.25" height="93.25" x="49.17" y="-46.62" fill="none" stroke="#000" stroke-width="2.12" rx="7.6" ry="7.6" transform="rotate(45)"/>
  <path d="M85.47 37.9a8.25 8.25 0 0 1-11.27 3.02 8.25 8.25 0 0 1-3.02-11.27 8.25 8.25 0 0 1 11.27-3.02 8.25 8.25 0 0 1 3.02 11.27Zm-23.78 5.86 19.74 3.47-14.38 24.9-19.74-3.47Z"/>
  <path d="m61.39 63.1-2.46 4.27 20.33 11.74-16.01 14.23 3.26 3.68 21.11-18.76Zm37.56-19.04L86.35 57.5l-4.92-10.26-4.44 2.13 6.49 13.5 4 .62 15.06-16.06Zm-47.36-2.14-2.47 1.03-12.43 18.2 4.07 2.77 11.52-16.87 12.2 2.2.87-4.84z" color="#000" style="-inkscape-stroke:none"/>
  <path d="M58.03 64.01 38.18 98.38l3.6 3.6 20.5-35.51Z" color="#000" style="-inkscape-stroke:none"/>
</svg>
