<svg xmlns="http://www.w3.org/2000/svg" xml:space="preserve" viewBox="0 0 135.5 135.5">
  <rect width="102.9" height="102.9" x="44.3" y="-51.5" fill="#f5d061" paint-order="markers fill stroke" rx="12.2" ry="12.2" style="-inkscape-stroke:none" transform="rotate(45)"/>
  <g stroke-width=".9">
    <path d="M88.1 33.6A9.6 9.6 0 0 1 75 37a9.6 9.6 0 0 1-3.6-13.2 9.6 9.6 0 0 1 13.2-3.5 9.6 9.6 0 0 1 3.5 13.2Zm-27.7 6.8 23 4-16.8 29.1-23-4z"/>
    <path d="m61.4 63.1-2.5 4.3L79.3 79l-16 14.2 3.2 3.7 21.1-18.7zm37.6-19L86.3 57.5l-4.9-10.3-4.4 2.2 6.5 13.5 4 .6 15-16zm-47.4-2.2L49 43 36.7 61.3l4 2.7 11.6-16.8 12.2 2.2.9-4.9z" color="#000" style="-inkscape-stroke:none" transform="translate(-11.7 -10.7) scale(1.1677)"/>
    <path d="M58 64 38.2 98.4l3.6 3.6 20.5-35.5z" color="#000" style="-inkscape-stroke:none" transform="translate(-11.7 -10.7) scale(1.1677)"/>
  </g>
</svg>
